<svg xmlns="http://www.w3.org/2000/svg" xmlns:xlink="http://www.w3.org/1999/xlink" version="1.1" width="256" height="256" viewBox="0 0 256 256" xml:space="preserve">

<defs>
</defs>
<g style="stroke: none; stroke-width: 0; stroke-dasharray: none; stroke-linecap: butt; stroke-linejoin: miter; stroke-miterlimit: 10; fill: none; fill-rule: nonzero; opacity: 1;" transform="translate(1.4065934065934016 1.4065934065934016) scale(2.81 2.81)" >
	<circle cx="23.012" cy="40.992000000000004" r="7.502" style="stroke: none; stroke-width: 1; stroke-dasharray: none; stroke-linecap: butt; stroke-linejoin: miter; stroke-miterlimit: 10; fill: rgb(84,109,237); fill-rule: nonzero; opacity: 1;" transform="  matrix(1 0 0 1 0 0) "/>
	<circle cx="40.992000000000004" cy="23.012" r="7.502" style="stroke: none; stroke-width: 1; stroke-dasharray: none; stroke-linecap: butt; stroke-linejoin: miter; stroke-miterlimit: 10; fill: rgb(107,193,59); fill-rule: nonzero; opacity: 1;" transform="  matrix(1 0 0 1 0 0) "/>
	<circle cx="64.182" cy="26.322" r="7.502" style="stroke: none; stroke-width: 1; stroke-dasharray: none; stroke-linecap: butt; stroke-linejoin: miter; stroke-miterlimit: 10; fill: rgb(240,174,66); fill-rule: nonzero; opacity: 1;" transform="  matrix(1 0 0 1 0 0) "/>
	<circle cx="26.322" cy="64.182" r="7.502" style="stroke: none; stroke-width: 1; stroke-dasharray: none; stroke-linecap: butt; stroke-linejoin: miter; stroke-miterlimit: 10; fill: rgb(210,63,52); fill-rule: nonzero; opacity: 1;" transform="  matrix(1 0 0 1 0 0) "/>
	<path d="M 85.551 78.322 L 62.529 56.626 c 0.176 -2.43 -0.84 -5.022 -3.075 -7.128 c -6.643 -6.26 -13.569 -7.475 -19.235 -7.501 c 0.362 5.654 1.985 12.497 8.628 18.757 c 2.235 2.106 4.883 2.966 7.298 2.647 c 0 0 0 0 0 0 l 23.021 21.695 c 1.871 1.763 4.816 1.676 6.579 -0.195 C 87.508 83.03 87.421 80.085 85.551 78.322 z" style="stroke: none; stroke-width: 1; stroke-dasharray: none; stroke-linecap: butt; stroke-linejoin: miter; stroke-miterlimit: 10; fill: rgb(204,153,106); fill-rule: nonzero; opacity: 1;" transform=" matrix(1 0 0 1 0 0) " stroke-linecap="round" />
	<path d="M 54.85 69.053 l -0.663 -0.625 c -1.857 -0.143 -3.693 -0.702 -5.41 -1.619 c -0.082 2.54 0.294 5.146 1.133 7.711 c 0.658 2.013 0.42 4.175 -0.652 5.931 c -1.016 1.663 -2.638 2.748 -4.565 3.056 c -11.415 1.826 -22.171 -1.342 -29.512 -8.683 C 1.303 60.944 3.389 36.276 19.832 19.832 C 36.277 3.389 60.944 1.304 74.823 15.181 c 7.341 7.342 10.506 18.098 8.683 29.512 c -0.308 1.928 -1.393 3.549 -3.056 4.565 c -1.756 1.073 -3.917 1.311 -5.931 0.652 c -3.025 -0.988 -6.15 -1.321 -9.132 -1.023 c 1.081 1.709 1.781 3.575 2.044 5.487 l 0.435 0.41 c 1.579 0.039 3.197 0.31 4.789 0.831 c 3.686 1.205 7.668 0.753 10.923 -1.235 c 3.14 -1.918 5.274 -5.103 5.855 -8.74 c 2.129 -13.337 -1.65 -25.985 -10.367 -34.702 c -16.22 -16.22 -44.696 -14.133 -63.478 4.651 c -18.784 18.783 -20.87 47.259 -4.651 63.478 c 7.123 7.123 16.868 10.949 27.471 10.949 c 2.373 0 4.791 -0.192 7.231 -0.581 c 3.637 -0.581 6.823 -2.716 8.74 -5.855 c 1.989 -3.257 2.439 -7.239 1.235 -10.923 C 55.222 71.453 54.971 70.246 54.85 69.053 z" style="stroke: none; stroke-width: 1; stroke-dasharray: none; stroke-linecap: butt; stroke-linejoin: miter; stroke-miterlimit: 10; fill: rgb(151,105,71); fill-rule: nonzero; opacity: 1;" transform=" matrix(1 0 0 1 0 0) " stroke-linecap="round" />
</g>
</svg>