<svg height="512" viewBox="0 0 61 45" width="512" xmlns="http://www.w3.org/2000/svg"><g id="080---Trainset" fill="none"><g id="Icons" transform="translate(1 1)"><path id="Shape" d="m48.96 3.46c-.219.846.372-1.45-2.71 10.54h-6.5c-2.745-10.682-2.517-9.795-2.71-10.54-.1344656-.86656971.1169667-1.74858886.6881468-2.41400405s1.4049145-1.04759701 2.2818532-1.04599595h5.99c.8751922.00131951 1.7061712.38475505 2.275106 1.04979369.5689348.66503865.8190913 1.54536281.684894 2.41020631z" fill="#37474f"/><path id="Shape" d="m45.96 3.46c-.219.846.372-1.45-2.71 10.54h-3.5c-2.745-10.682-2.517-9.795-2.71-10.54-.1344656-.86656971.1169667-1.74858886.6881468-2.41400405s1.4049145-1.04759701 2.2818532-1.04599595h2.99c.8751922.00131951 1.7061712.38475505 2.275106 1.04979369.5689348.66503865.8190913 1.54536281.684894 2.41020631z" fill="#607d8b"/><path id="Shape" d="m53 21v4h-51v-16c-1.1045695 0-2-.8954305-2-2s.8954305-2 2-2h22c1.1045695 0 2 .8954305 2 2s-.8954305 2-2 2v8h3c.0029536-.9095785.6192985-1.702609 1.5-1.93.8272233-.1267247 1.6669817-.1502379 2.5-.07 1.1032019.0032948 1.9967052.8967981 2 2h3s0-2.55 3.75-3h6.5c3.75.45 3.75 3 3.75 3s3 2 3 4z" fill="#9e9e9e"/><path id="Shape" d="m50 17s0-2.55-3.75-3h-3c3.75.45 3.75 3 3.75 3s3 2 3 4v4h3v-4c0-2-3-4-3-4z" fill="#545c60"/><path id="Shape" d="m29 35c-.0093253 2.9147304-2.1120571 5.4011248-4.9847776 5.8942957-2.8727204.4931709-5.6843153-1.1495623-6.6652224-3.8942957h5.65c.5305905.0028231 1.0395388-.2101411 1.41-.59.5684616-.5718399.7379389-1.4291108.4298346-2.1742425s-1.0335232-1.2323721-1.8398346-1.2357575h-5.65c.9809071-2.7447334 3.792502-4.3874666 6.6652224-3.8942957 2.8727205.4931709 4.9754523 2.9795653 4.9847776 5.8942957z" fill="#c81e1e"/><path id="Shape" d="m26 35c-.0057399 2.734137-1.8541785 5.1206766-4.5 5.81-1.9328223-.4972139-3.4897823-1.9266157-4.15-3.81h2.65c1.1045695 0 2-.8954305 2-2s-.8954305-2-2-2h-2.65c.6602177-1.8833843 2.2171777-3.3127861 4.15-3.81 2.6454139.689941 4.4935601 3.0761032 4.5 5.81z" fill="#f44335"/><path id="Shape" d="m36.5 32c-1.8200801 0-3.4609434 1.0963898-4.1574579 2.7779246-.6965145 1.6815347-.3115136 3.6170649.9754774 4.9040559s3.2225212 1.6719919 4.9040559.9754774c1.6815348-.6965145 2.7779246-2.3373778 2.7779246-4.1574579 0-2.4852814-2.0147186-4.5-4.5-4.5zm0 6c-.8284271 0-1.5-.6715729-1.5-1.5s.6715729-1.5 1.5-1.5 1.5.6715729 1.5 1.5-.6715729 1.5-1.5 1.5z" fill="#f44335"/><path id="Rectangle-path" d="m2 21h51v4h-51z" fill="#c81e1e"/><path id="Rectangle-path" d="m2 21h48v4h-48z" fill="#f44335"/><path id="Rectangle-path" d="m20 9h4v12h-4z" fill="#c81e1e"/><path id="Rectangle-path" d="m2 9h4v12h-4z" fill="#c81e1e"/><path id="Shape" d="m55 32h-9.5c-1.1939625-.0015951-2.3394822.4719984-3.1837419 1.3162581s-1.3178532 1.9897794-1.3162581 3.1837419c.002961-1.7931062-1.0589008-3.4168469-2.7027995-4.1329724s-3.5560664-.3879503-4.8671173.8353176-1.7707471 3.1081455-1.1700832 4.7976548h-4.07c1.1421673-1.9686131 1.0710841-4.4142178-.1834965-6.3131679-1.2545806-1.89895-3.476268-2.9237136-5.73514-2.6453598-2.2588721.2783538-4.1653174 1.8118144-4.9213635 3.9585277h-.7c-.7841616-2.2006844-2.774405-3.7460994-5.1007466-3.9607065-2.32634162-.2146072-4.56572184.9406211-5.7392534 2.9607065h-5.81c.1013664-1.2791476.85823543-2.4144512 2-3v-4h51v4c1.1417646.5855488 1.8986336 1.7208524 2 3z" fill="#607d8b"/><path id="Shape" d="m53 29v-4h-3v4c1.1417646.5855488 1.8986336 1.7208524 2 3h3c-.1013664-1.2791476-.8582354-2.4144512-2-3z" fill="#37474f"/><path id="Shape" d="m45.5 32c-1.8200801 0-3.4609434 1.0963898-4.1574579 2.7779246-.6965145 1.6815347-.3115136 3.6170649.9754774 4.9040559s3.2225212 1.6719919 4.9040559.9754774c1.6815348-.6965145 2.7779246-2.3373778 2.7779246-4.1574579.0015951-1.1939625-.4719984-2.3394822-1.3162581-3.1837419s-1.9897794-1.3178532-3.1837419-1.3162581zm0 6c-.8284271 0-1.5-.6715729-1.5-1.5s.6715729-1.5 1.5-1.5 1.5.6715729 1.5 1.5-.6715729 1.5-1.5 1.5z" fill="#f44335"/><path id="Shape" d="m57.13 38h-7.39c.4867971-1.3768693.2751634-2.9043473-.5676435-4.0969986s-2.2119662-1.9021445-3.6723565-1.9030014h9.5l2.96 4.45c.2062271.3055996.2263714.7002395.0523337 1.0252497-.1740377.3250101-.5136663.5269974-.8823337.5247503z" fill="#c81e1e"/><path id="Shape" d="m54.13 38h-4.39c.4867971-1.3768693.2751634-2.9043473-.5676435-4.0969986s-2.2119662-1.9021445-3.6723565-1.9030014h6.5l2.96 4.45c.2062271.3055996.2263714.7002395.0523337 1.0252497-.1740377.3250101-.5136663.5269974-.8823337.5247503z" fill="#f44335"/><path id="Shape" d="m5.09 36h-3.09c-1.10320187-.0032948-1.9967052-.8967981-2-2v-2h5.81c-.70715595 1.2056134-.96237045 2.6234718-.72 4z" fill="#f44335"/><path id="Rectangle-path" d="m14 9h6v12h-6z" fill="#0377bc"/><path id="Shape" d="m6 9v12h11v-12z" fill="#02a9f4"/><circle id="Oval" cx="36.5" cy="36.5" fill="#cfd8dc" r="1.5"/><circle id="Oval" cx="45.5" cy="36.5" fill="#cfd8dc" r="1.5"/><path id="Shape" d="m25 35c-.0027483 1.1034291-.8965709 1.9972517-2 2h-12c-1.1045695 0-2-.8954305-2-2s.8954305-2 2-2h12c1.1032019.0032948 1.9967052.8967981 2 2z" fill="#fec108"/><path id="Shape" d="m22 35c-.0027483 1.1034291-.8965709 1.9972517-2 2h-9c-1.1045695 0-2-.8954305-2-2s.8954305-2 2-2h9c1.1032019.0032948 1.9967052.8967981 2 2z" fill="#ffdc00"/><path id="Shape" d="m11 37c-1.1045695 0-2-.8954305-2-2s.8954305-2 2-2h5.65c-.9740726-2.7550934-3.7913325-4.4077442-6.67146612-3.9135914-2.88013366.4941529-4.98538813 2.9913736-4.98538813 5.9135914s2.10525447 5.4194385 4.98538813 5.9135914c2.88013362.4941528 5.69739352-1.158498 6.67146612-3.9135914z" fill="#f44335"/></g><g id="Outline" fill="#000"><path id="Shape" d="m3 38h2.3c.78920645 2.6614982 3.08036956 4.6024717 5.8353883 4.9434866 2.7550187.3410149 5.4502884-.9827403 6.8646117-3.3714866 1.2069497 2.0443678 3.3719732 3.3332976 5.7444539 3.4199155s4.6257311-1.0410032 5.9785461-2.9919155h2.884c.8756442 1.7180236 2.5882991 2.8508239 4.5119747 2.9843528 1.9236756.1335288 3.7764147-.7517854 4.8810253-2.3323528 1.1042698 1.5811016 2.9571728 2.4668395 4.8810906 2.3332939 1.9239178-.1335457 3.6366765-1.2667883 4.5119094-2.9852939h6.737c.734253-.0026876 1.4079953-.4074992 1.7550983-1.0545342.3471029-.647035.3117485-1.4322427-.0920983-2.0454658l-2.822-4.242c-.1595085-1.3055134-.8788956-2.4771179-1.971-3.21v-7.448c0-2.049-2.138-3.869-3.062-4.559-.4289006-1.6532365-1.7757909-2.9089047-3.455-3.221l2.465-9.608c.1785343-1.15314631-.1553754-2.32676113-.9142042-3.21321461s-1.8669115-1.3973547-3.0337958-1.39878539h-5.99c-1.1853393-.00069244-2.3099387.52436947-3.0704634 1.43356244-.7605248.90919297-1.0786382 2.10886691-.8685366 3.27543756l2.447 9.517c-1.5089558.3003436-2.7631221 1.3444785-3.332 2.774h-1.357c-.4253536-1.1977017-1.5580112-1.9984494-2.829-2h-2c-1.2711661.0017239-2.4040249.8023308-2.83 2h-1.17v-6.184c1.3765475-.4848523 2.2026937-1.89184415 1.9553873-3.33017801-.2473064-1.43833387-1.49595-2.48858739-2.9553873-2.48582199h-22c-1.45943726-.0027654-2.70808095 1.04748812-2.95538732 2.48582199-.24730638 1.43833386.57883984 2.84532571 1.95538732 3.33017801v18.632c-1.20404012.7888568-1.94985646 2.1134266-2 3.552v2c0 1.6568542 1.34314575 3 3 3zm0-2c-.55228475 0-1-.4477153-1-1v-1h3.3c-.19677039.6485208-.29783553 1.3222883-.3 2zm4 0c0-2.152152 1.37715047-4.0628463 3.4188612-4.7434165 2.0417107-.6805702 4.2898476.0216949 5.5811388 1.7434165h-4c-1.6568542 0-3 1.3431458-3 3s1.3431458 3 3 3h4c-1.2912912 1.7217216-3.5394281 2.4239867-5.5811388 1.7434165-2.04171073-.6805702-3.4188612-2.5912645-3.4188612-4.7434165zm5 1c-.5522847 0-1-.4477153-1-1s.4477153-1 1-1h12c.5522847 0 1 .4477153 1 1s-.4477153 1-1 1zm8 2h4c1.6568542 0 3-1.3431458 3-3s-1.3431458-3-3-3h-4c1.2912912-1.7217216 3.5394281-2.4239867 5.5811388-1.7434165s3.4188612 2.5912645 3.4188612 4.7434165-1.3771505 4.0628463-3.4188612 4.7434165-4.2898476-.0216949-5.5811388-1.7434165zm10.7-1c1.0199213-3.3823241-.6461067-6.9936805-3.8811908-8.4130418s-7.020619-.1998245-8.8188092 2.8410418c-1.2069497-2.0443678-3.3719732-3.3332976-5.7444539-3.4199155-2.37248066-.0866179-4.62573105 1.0410032-5.9785461 2.9919155h-3.994c.29179022-.456683.69156253-.8344747 1.164-1.1.34066936-.1702259.55507881-.5191744.553-.9v-3h49v3c0 1 1 .788 1.717 2-9.53 0-8.841-.034-9.107.079-1.4594791.2401494-2.7607188 1.05802-3.61 2.269-1.4324836-2.0335246-4.051489-2.8524992-6.3872797-1.9973305-2.3357908.8551687-3.80688 3.1715894-3.5877203 5.6493305zm-26.7-27h2v10h-2zm16 0v10h-4v-10zm4 0v10h-2v-10zm29 14h-49v-2h49zm-39-4h-6v-10h6zm23.5 20c-1.9329966 0-3.5-1.5670034-3.5-3.5s1.5670034-3.5 3.5-3.5 3.5 1.5670034 3.5 3.5-1.5670034 3.5-3.5 3.5zm9 0c-1.9329966 0-3.5-1.5670034-3.5-3.5s1.5670034-3.5 3.5-3.5 3.5 1.5670034 3.5 3.5-1.5670034 3.5-3.5 3.5zm8.964-7 2.666 4h-6.155c.1357465-1.4445871-.3089733-2.8838098-1.236-4zm-14.454-32h5.99c1.1045695 0 2 .8954305 2 2h-6c-.5522847 0-1 .44771525-1 1s.4477153 1 1 1h5.531l-2.057 8h-4.949l-2.5-9.692c-.0902152-.57878682.0778453-1.16802857.4598072-1.61214349.3819619-.44411491.939423-.6984519 1.5251928-.69585651zm-13.01 17c.5522847 0 1-.4477153 1-1-.000531-.2698664.1105861-.5279331.307-.713.378-.387.673-.287 2.693-.287.5522847 0 1 .4477153 1 1s.4477153 1 1 1h3c.5522847 0 1-.4477153 1-1 0-.017.035-1.648 2.826-2h6.349c2.673.338 2.825 1.847 2.825 2 .0032679.3334384.1694709.644182.445.832.8589625.5812922 1.6031215 1.3162976 2.195 2.168h-26.64v-2zm-25-12h22c.5522847 0 1 .44771525 1 1s-.4477153 1-1 1h-22c-.55228475 0-1-.44771525-1-1s.44771525-1 1-1z"/><path id="Shape" d="m37.5 35c-1.3807119 0-2.5 1.1192881-2.5 2.5s1.1192881 2.5 2.5 2.5 2.5-1.1192881 2.5-2.5-1.1192881-2.5-2.5-2.5zm0 3c-.2761424 0-.5-.2238576-.5-.5s.2238576-.5.5-.5.5.2238576.5.5-.2238576.5-.5.5z"/><path id="Shape" d="m46.5 35c-1.3807119 0-2.5 1.1192881-2.5 2.5s1.1192881 2.5 2.5 2.5 2.5-1.1192881 2.5-2.5-1.1192881-2.5-2.5-2.5zm0 3c-.2761424 0-.5-.2238576-.5-.5s.2238576-.5.5-.5.5.2238576.5.5-.2238576.5-.5.5z"/><path id="Shape" d="m6 43c-.55228475 0-1 .4477153-1 1s.44771525 1 1 1h48c.5522847 0 1-.4477153 1-1s-.4477153-1-1-1z"/><path id="Shape" d="m1 45h1c.55228475 0 1-.4477153 1-1s-.44771525-1-1-1h-1c-.55228475 0-1 .4477153-1 1s.44771525 1 1 1z"/><path id="Shape" d="m59 43h-1c-.5522847 0-1 .4477153-1 1s.4477153 1 1 1h1c.5522847 0 1-.4477153 1-1s-.4477153-1-1-1z"/></g></g></svg>