<?xml version="1.0" encoding="UTF-8" standalone="no"?>
<!-- Generator: Adobe Illustrator 19.0.0, SVG Export Plug-In . SVG Version: 6.00 Build 0)  -->

<svg
   version="1.1"
   id="Capa_1"
   x="0px"
   y="0px"
   viewBox="0 0 512 512"
   style="enable-background:new 0 0 512 512;"
   xml:space="preserve"
   sodipodi:docname="game.svg"
   inkscape:version="1.1 (c4e8f9e, 2021-05-24)"
   xmlns:inkscape="http://www.inkscape.org/namespaces/inkscape"
   xmlns:sodipodi="http://sodipodi.sourceforge.net/DTD/sodipodi-0.dtd"
   xmlns="http://www.w3.org/2000/svg"
   xmlns:svg="http://www.w3.org/2000/svg"><defs
   id="defs165" /><sodipodi:namedview
   id="namedview163"
   pagecolor="#505050"
   bordercolor="#eeeeee"
   borderopacity="1"
   inkscape:pageshadow="0"
   inkscape:pageopacity="0"
   inkscape:pagecheckerboard="0"
   showgrid="false"
   inkscape:zoom="1.3398438"
   inkscape:cx="255.62682"
   inkscape:cy="256"
   inkscape:window-width="1680"
   inkscape:window-height="912"
   inkscape:window-x="0"
   inkscape:window-y="25"
   inkscape:window-maximized="1"
   inkscape:current-layer="Capa_1" />
<path
   style="fill:#495A79;"
   d="M256,0C115.3,0,0,115.3,0,256s115.3,256,256,256s256-115.3,256-256S396.7,0,256,0z"
   id="path112" />

<path
   style="fill:#25B987;"
   d="M433.495,271h-92.637L271,340.858v92.637c0,9.023,7.988,16.295,17.49,14.795  c81.812-13.77,146.03-77.988,159.8-159.8C449.828,279.353,442.761,271,433.495,271z"
   id="path116" />
<path
   style="fill:#D94158;"
   d="M78.505,271c-9.265,0-16.333,8.353-14.795,17.49c13.77,81.812,77.988,146.03,159.8,159.8  c9.553,1.509,17.49-5.836,17.49-14.795v-92.637L171.142,271H78.505z"
   id="path118" />
<path
   style="fill:#FFCD33;"
   d="M223.51,63.71c-81.812,13.77-146.03,77.988-159.8,159.8C62.172,232.647,69.24,241,78.505,241h92.637  L241,171.142V78.505C241,69.439,232.933,62.224,223.51,63.71z"
   id="path120" />
<path
   style="fill:#4596E6;"
   d="M433.495,241c9.265,0,16.333-8.353,14.795-17.49c-13.77-81.812-77.988-146.03-159.8-159.8  C279.212,62.19,271,69.339,271,78.505v92.637L340.858,241H433.495z"
   id="path122" />




<g
   id="g132">
</g>
<g
   id="g134">
</g>
<g
   id="g136">
</g>
<g
   id="g138">
</g>
<g
   id="g140">
</g>
<g
   id="g142">
</g>
<g
   id="g144">
</g>
<g
   id="g146">
</g>
<g
   id="g148">
</g>
<g
   id="g150">
</g>
<g
   id="g152">
</g>
<g
   id="g154">
</g>
<g
   id="g156">
</g>
<g
   id="g158">
</g>
<g
   id="g160">
</g>
</svg>
