<svg id="Capa_1" enable-background="new 0 0 502.16 502.16" height="512" viewBox="0 0 502.16 502.16" width="512" xmlns="http://www.w3.org/2000/svg"><g><path d="m467.508 324.509-99.085-134.132c-20.032-27.118-45.802-49.298-75.321-65.062l25.109-9.893c3.367-1.327 5.755-4.369 6.243-7.954l4.305-31.609c.488-3.586-.999-7.156-3.888-9.334l-13.378-10.087c-8.16-6.152-16.68-11.612-25.474-16.388l.901-17.256c.48-9.182-10.644-14.09-17.103-7.547l-12.001 12.159c-57.821-20.8-123.228-14.733-177.154 19.036l-70.662 44.25v323.049c0 42.07 34.105 76.175 76.175 76.175l91.498-120.878c7.368-9.734 21.567-10.558 30.216-1.942 13.886 13.833 30.819 24.397 49.573 30.768l122.183 41.504c6.175 22.348 28.136 36.504 51.04 32.9l14.181-2.232c27.232-4.285 47.295-27.752 47.295-55.319v-15.342c0-26.95-8.641-53.189-24.653-74.866z" fill="#fff"/><path d="m291.04 160.766c-2.83 7.51 3.88 15.11 11.68 13.25l42.67-10.2c-12.94-12.78-27.38-23.95-42.99-33.26zm176.47 163.741-17.72 6.85c-17.56 6.78-28.01 24.9-25.1 43.51l1.76 11.2c1.64 10.45-6.98 19.84-17.49 18.73-14.08-1.48-25.549 7.73-28.909 20.08l2.129-75.95c.67-19.77 11.71-37.71 29.05-47.21l28.08-15.39-18.73-25.35-39.52 21.26c-21.91 11.78-36.66 33.54-39.5 58.25l-9.51 82.71 47.6 16.17c6.17 22.35 28.13 36.51 51.03 32.9l14.19-2.23c27.23-4.29 47.29-27.75 47.29-55.32v-15.34c0-26.951-8.64-53.191-24.65-74.87zm-261.8-162.041c-13.33-13.79-18.06-32.49-19.71-45.41-1.09-8.54 3.036-17.259 13.76-21.99l-9.93-79.68c-16.52-.09-40.461 2.348-61.71 9.229s-39.832 16.125-61.25 30.471l60.2 63.2 25.63 109.58c11.96 51.14 16.56 103.7 13.66 156.12l11.31-14.95c6.46-8.53 18.17-10.22 26.79-4.69l8.23-69.58c3.77-31.83 3.27-64.01-1.49-95.71zm96.32 112.75-4.64 2.13c-22.65 10.38-39.17 30.73-44.69 55.02l-13.13 57.87c7.462 4.244 20.865 8.841 44.63 16.71l11.57-75.89c1.87-12.27 6.57-23.94 13.73-34.08l4.87-6.9c5.89-8.35-3.05-19.11-12.34-14.86zm16.18-159.79c3.37-1.33 5.75-4.37 6.24-7.96l4.31-31.61c.49-3.58-1-7.15-3.89-9.33 0 0-21.031-17.191-38.85-26.48-.568 19.16-3.71 31.72-8.36 43.65l-11.47 29.43c9.26 3.48 18.25 7.56 26.91 12.19zm-209.07 211.99c-1.17-32.5-4.97-64.84-11.38-96.72l-15.78-78.52-71.98-61.48v58.52l40 26.99 9.5 72.92c4.9 37.62 6.22 75.63 3.95 113.51l-7.28 121.14c9.21 3.95 19.35 6.14 30 6.14l27.5-36.32v-.01z" fill="#8aa8bd"/><path d="m321.266 229.155c-6.509-4.26-14.499-5.368-21.919-3.047l-13.488 4.223c-12.633 3.955-18.608-15.131-5.975-19.086l13.488-4.223c13.155-4.118 27.315-2.15 38.847 5.398 11.156 7.302.203 24.037-10.953 16.735zm-301.266 118.761c0-5.521-4.49-10-10-10s-10 4.479-10 10c0 5.51 4.49 10 10 10s10-4.49 10-10zm482.16 51.46v15.34c0 32.265-23.354 59.878-55.74 65.2 0 0-16.726 2.91-22.86 2.91-24.691 0-44.172-15.33-51.83-35.591l-117.49-39.899c-17.079-5.742-37.595-17.065-53.41-33.16-4.185-4.259-11.427-4.066-15.181.9l-91.5 120.87c-1.909 2.52-4.819 3.97-7.97 3.97-49.922 0-86.18-41.032-86.18-86.17v-20.83c0-.01 0-.021 0-.021.01-5.51 4.49-9.979 10-9.979s10 4.479 10 10v20.83c0 22.783 11.129 41.364 27.147 53.414l6.318-105.126c2.233-37.158.928-74.712-3.881-111.62l-8.917-68.442-20.666-13.945v134.889c0 5.51-4.49 10-10 10s-10-4.49-10-10v-212.23c0-3.46 1.75-6.63 4.689-8.47l70.67-44.25c34.03-21.32 73.25-32.59 113.421-32.59 22.625 0 44.899 3.547 66.323 10.541l7.595-7.695c5.885-5.964 14.642-7.634 22.308-4.248 7.666 3.382 12.336 10.975 11.898 19.342l-.578 11.071c11.706 6.143 34.564 24.154 34.564 24.154 5.771 4.35 8.752 11.504 7.776 18.668l-4.305 31.608c-.976 7.163-5.759 13.26-12.485 15.909l-6.083 2.396c23.347 15.253 43.888 34.593 60.672 57.313 0 0 99.084 134.128 99.085 134.13 8.599 11.651 26.61 39.771 26.61 80.811zm-55.972-77.349 5.488-2.121-15.224-20.609-20.414 11.189c-14.173 7.764-23.315 22.623-23.863 38.779l-1.366 48.771c5.83-2.665 12.406-3.843 19.197-3.186 4.673.453 7.124-3.999 6.566-7.234l-1.76-11.198c-3.614-23.104 9.583-45.976 31.376-54.391zm-138.752-176.451-7.019 18.666 24.221-5.765c-5.517-4.582-11.254-8.892-17.202-12.901zm-28.335-38.037c4.95 2.106 9.816 4.371 14.588 6.796l20.857-8.217 4.304-31.609s-17.479-13.561-24.093-17.599c-1.352 10.406-3.953 20.602-7.78 30.422zm-77.9-81.767 6.26 50.228c1.419-1.745 2.672-3.592 3.736-5.536 3.906-7.143 10.255-20.709 20.418-30.752l7.576-7.675c-12.425-3.347-25.127-5.446-37.99-6.265zm-59.383 5.378 24.787 57.605c7.16-1.768 14.477-2.923 21.866-3.418l-7.452-59.799c-13.281.531-26.412 2.416-39.201 5.612zm-59.262 25.904 45.864 48.149c6.088-3.923 12.492-7.309 19.136-10.12l-24.977-58.046c-22.031 7.815-40.023 20.017-40.023 20.017zm-55.707 34.883 55.532 47.43 29.7-22.318-46.827-49.16zm-6.849 51.963 29.689 20.033 16.31-12.256-45.999-39.289zm83.544 306.493-4.398-122.621c-1.144-31.855-4.907-63.852-11.188-95.101l-12.655-62.968-14.633 10.996 8.746 67.131c4.972 38.159 6.322 76.986 4.014 115.403l-6.834 113.717c4.762 1.476 9.702 2.422 14.734 2.785zm39.419-220.249-22.137-94.649-27.799 20.89 14.539 72.345c6.493 32.309 10.385 65.39 11.566 98.325l3.519 98.1 33.865-44.733c2.51-50.483-2.034-101.026-13.553-150.278zm58.349-29.604-5.039-33.576c-13.454-15.348-18.42-34.744-20.192-48.645-.495-3.885-.214-7.728.724-11.359-13.675 2.634-26.788 7.95-38.456 15.642l24.088 102.986c10.013 42.812 14.945 86.564 14.748 130.433 4.797-3.132 11.492-5.477 18.754-4.777l6.82-57.654c3.665-30.938 3.178-62.245-1.447-93.05zm84.572 129.009c2.094-13.736 7.436-26.994 15.447-38.341l4.868-6.897c-.003-.003-.006-.004-.009-.001 0 0-35.061 11.994-43.739 50.272l-11.361 50.076c4.071 2.178 25.024 8.98 25.024 8.98zm45.741 9.795c3.214-27.953 19.924-52.595 44.699-65.915l29.353-15.79-45.298-61.32c-5.599-7.579-11.659-14.744-18.129-21.47l-37.205 8.893c-14.174 3.497-29.271-9.857-23.362-26.502l8.357-22.224c-5.909-3.218-11.983-6.164-18.204-8.832l-5.195 13.331c-2.004 5.146-7.802 7.692-12.948 5.687s-7.692-7.803-5.687-12.948l20.337-52.184c4.269-10.955 6.744-22.463 7.357-34.203l1.232-23.595-31.083 31.491c-7.816 7.669-13.554 19.806-17.105 26.299-5.907 10.8-15.345 19.586-27.292 25.408-3.855 1.879-6.078 6.026-5.53 10.322 1.483 11.643 5.634 27.985 16.979 39.723-.002.003 2.245 2.176 2.699 5.468l5.49 36.59c4.89 32.564 5.404 65.662 1.531 98.369l-7.589 64.154c5.441 5.409 11.427 10.281 17.822 14.549l10.094-44.491c6.172-27.16 24.116-50.882 54.911-64.026 8.439-3.602 17.877-1.642 23.73 5.41 5.851 7.049 6.233 16.816.952 24.303l-4.872 6.903c-6.232 8.825-10.386 19.136-12.015 29.819l-10.307 67.609 28.182 9.572zm11.281 76.981 27.123 9.213 2.155-76.892c.787-23.239 13.907-44.56 34.242-55.7l18.032-9.883-6.775-9.172-31.886 17.153c-19.014 10.223-31.836 29.133-34.303 50.586zm139.254-16.949c0-22.108-6.513-44.084-18.43-62.688l-10.335 3.995c-13.077 5.05-20.993 18.775-18.825 32.639l1.759 11.193c2.413 14.659-8.942 31.692-28.42 30.226-9.403-.708-15.706 5.277-17.9 11.781l-.323 11.537c4.734 14.708 19.972 27.287 39.763 24.243l-8.559-16.146c-2.587-4.88-.729-10.933 4.151-13.519 4.879-2.59 10.933-.728 13.519 4.151l11.539 21.767c18.93-5.953 32.062-23.414 32.062-43.841v-15.338z"/></g></svg>